<svg xmlns="http://www.w3.org/2000/svg" width="471.988" height="132.004" viewBox="0 0 471.988 132.004">
  <g id="todo-app-logo" transform="translate(-0.008 -102.359)">
    <rect id="長方形_6" data-name="長方形 6" width="38.48" height="38.48" transform="translate(0.008 177.367) rotate(-45)" fill="#3e3a39"/>
    <rect id="長方形_7" data-name="長方形 7" width="106.077" height="38.48" transform="translate(60.183 177.367) rotate(-45)" fill="#3e3a39"/>
    <rect id="長方形_8" data-name="長方形 8" width="38.48" height="38.48" transform="translate(30.397 207.153) rotate(-45)" fill="#3e3a39"/>
    <g id="グループ_5" data-name="グループ 5" transform="translate(180.387 140.335)">
      <path id="パス_8" data-name="パス 8" d="M589.52,226.47h19.974a27.077,27.077,0,0,1,5.434.587,26.56,26.56,0,0,1,11.125,5.214,22.242,22.242,0,0,1,4.59,4.957,24.8,24.8,0,0,1,3.158,6.683,31.735,31.735,0,0,1,0,17.11,24.8,24.8,0,0,1-3.158,6.683,22.242,22.242,0,0,1-4.59,4.957A26.437,26.437,0,0,1,620.62,276a26.7,26.7,0,0,1-5.691,1.873,27.076,27.076,0,0,1-5.434.587H589.52Zm6.169,46.264h11.75a28.094,28.094,0,0,0,8.3-1.175,17.741,17.741,0,0,0,6.609-3.635,17.092,17.092,0,0,0,4.406-6.279,26.886,26.886,0,0,0,0-18.359,17.092,17.092,0,0,0-4.406-6.279,17.741,17.741,0,0,0-6.609-3.635,28.1,28.1,0,0,0-8.3-1.175h-11.75Z" transform="translate(-589.52 -226.47)" fill="#3e3a39"/>
      <path id="パス_9" data-name="パス 9" d="M760.64,299.255a18.7,18.7,0,0,1,1.4-7.344,17.371,17.371,0,0,1,3.819-5.691,16.967,16.967,0,0,1,5.8-3.708,21.06,21.06,0,0,1,14.687,0,16.968,16.968,0,0,1,5.8,3.708,17.372,17.372,0,0,1,3.819,5.691,20.023,20.023,0,0,1,0,14.687,17.372,17.372,0,0,1-3.819,5.691,16.968,16.968,0,0,1-5.8,3.708,21.059,21.059,0,0,1-14.687,0,16.968,16.968,0,0,1-5.8-3.708,17.37,17.37,0,0,1-3.819-5.691A18.7,18.7,0,0,1,760.64,299.255Zm6.169,0a14.562,14.562,0,0,0,.844,5.03,11.606,11.606,0,0,0,6.315,6.756,13.258,13.258,0,0,0,10.061,0,11.606,11.606,0,0,0,6.315-6.756,15.4,15.4,0,0,0,0-10.061,11.606,11.606,0,0,0-6.315-6.756,13.258,13.258,0,0,0-10.061,0,11.606,11.606,0,0,0-6.315,6.756A14.562,14.562,0,0,0,766.809,299.255Z" transform="translate(-708.281 -264.447)" fill="#3e3a39"/>
      <path id="パス_10" data-name="パス 10" d="M913.04,226.47h6.169v51.992H913.04Z" transform="translate(-814.049 -226.47)" fill="#3e3a39"/>
      <path id="パス_11" data-name="パス 11" d="M980.552,266.764H970.418v17.184q0,1.689.073,3.121a6.461,6.461,0,0,0,.587,2.5,3.949,3.949,0,0,0,1.542,1.689,5.7,5.7,0,0,0,2.937.624,11.833,11.833,0,0,0,2.57-.294,10.794,10.794,0,0,0,2.5-.881l.22,5.214a13.064,13.064,0,0,1-3.268.955,21.224,21.224,0,0,1-3.415.294,12.415,12.415,0,0,1-4.92-.808,6.683,6.683,0,0,1-2.864-2.276,8.477,8.477,0,0,1-1.359-3.635,32.05,32.05,0,0,1-.33-4.81V266.764H957.2v-4.847h7.49V252.15h5.728v9.767h10.134Z" transform="translate(-844.697 -244.292)" fill="#3e3a39"/>
      <path id="パス_12" data-name="パス 12" d="M1059.91,226.47h7.784l30.109,43.18h.147V226.47h6.169v51.992h-7.784l-30.109-43.18h-.147v43.18h-6.169Z" transform="translate(-915.98 -226.47)" fill="#3e3a39"/>
      <path id="パス_13" data-name="パス 13" d="M1236.79,299.255a18.7,18.7,0,0,1,1.4-7.344A17.373,17.373,0,0,1,1242,286.22a16.967,16.967,0,0,1,5.8-3.708,21.059,21.059,0,0,1,14.687,0,16.967,16.967,0,0,1,5.8,3.708,17.373,17.373,0,0,1,3.819,5.691,20.024,20.024,0,0,1,0,14.687,17.373,17.373,0,0,1-3.819,5.691,16.967,16.967,0,0,1-5.8,3.708,21.059,21.059,0,0,1-14.687,0,16.967,16.967,0,0,1-5.8-3.708,17.373,17.373,0,0,1-3.819-5.691A18.7,18.7,0,0,1,1236.79,299.255Zm6.168,0a14.565,14.565,0,0,0,.844,5.03,11.607,11.607,0,0,0,6.316,6.756,13.258,13.258,0,0,0,10.061,0,11.607,11.607,0,0,0,6.316-6.756,15.4,15.4,0,0,0,0-10.061,11.606,11.606,0,0,0-6.316-6.756,13.258,13.258,0,0,0-10.061,0,11.606,11.606,0,0,0-6.316,6.756A14.565,14.565,0,0,0,1242.958,299.255Z" transform="translate(-1038.738 -264.447)" fill="#3e3a39"/>
      <path id="パス_14" data-name="パス 14" d="M1412.7,318.438h-5.655L1397.279,292h-.147l-8.665,26.437h-5.875L1371.43,284.07h6.315l7.858,26.437h.147l8.886-26.437h6.022l9.033,26.437h.147l7.784-26.437h6.169Z" transform="translate(-1132.181 -266.446)" fill="#3e3a39"/>
    </g>
  </g>
</svg>
